<svg version="1.0" xmlns="http://www.w3.org/2000/svg"
 width="115.000000pt" height="112.000000pt" viewBox="0 0 115.000000 112.000000"
 preserveAspectRatio="xMidYMid meet">

<g transform="translate(0.000000,112.000000) scale(0.100000,-0.100000)"
fill="#5C5589" stroke="none">
<path d="M85 1065 c-20 -19 -25 -35 -25 -72 0 -26 -7 -57 -15 -67 -13 -17 -15
-84 -15 -423 0 -390 1 -404 20 -423 18 -18 33 -20 189 -20 138 0 171 3 181 15
10 12 10 18 0 30 -9 11 -46 15 -174 17 l-161 3 0 105 0 105 168 3 c138 2 169
5 174 17 3 9 0 22 -7 30 -10 12 -43 15 -176 15 l-164 0 0 105 0 105 264 0
c232 0 267 2 281 16 25 25 18 273 -7 301 -12 13 -18 36 -18 71 0 73 -22 92
-111 92 -89 0 -113 -18 -114 -86 l0 -49 -42 -3 -43 -3 0 50 c0 73 -23 91 -112
91 -60 0 -72 -3 -93 -25z m150 -75 l0 -35 -57 -3 -58 -3 0 41 0 41 58 -3 57
-3 0 -35z m313 -2 l3 -38 -60 0 -61 0 0 40 0 41 58 -3 57 -3 3 -37z m32 -208
l0 -110 -247 2 -248 3 -3 94 c-1 52 -1 100 2 108 4 10 56 13 251 13 l245 0 0
-110z"/>
<path d="M600 534 c-37 -16 -50 -37 -50 -86 0 -35 -6 -58 -20 -75 -17 -22 -20
-41 -20 -145 0 -113 1 -120 25 -143 l24 -25 261 0 c324 0 300 -14 300 169 0
95 -4 133 -13 143 -8 7 -17 40 -21 73 -9 81 -20 90 -110 90 -95 0 -116 -16
-116 -87 l0 -48 -45 0 -45 0 0 48 c0 70 -14 83 -91 88 -35 2 -71 1 -79 -2z
m104 -60 c10 -4 16 -18 16 -40 l0 -34 -60 0 -60 0 0 34 c0 30 4 35 28 39 47 7
60 7 76 1z m310 0 c10 -4 16 -18 16 -40 l0 -34 -60 0 -60 0 0 34 c0 19 6 37
13 39 18 8 73 8 91 1z m51 -244 l0 -105 -247 -3 -246 -2 -4 102 c-2 57 -2 106
0 111 2 4 114 6 250 5 l247 -3 0 -105z"/>
</g>
</svg>
