<?xml version="1.0" standalone="no"?>
<!DOCTYPE svg PUBLIC "-//W3C//DTD SVG 20010904//EN"
 "http://www.w3.org/TR/2001/REC-SVG-20010904/DTD/svg10.dtd">
<svg version="1.0" xmlns="http://www.w3.org/2000/svg"
 width="177.000000pt" height="196.000000pt" viewBox="0 0 177.000000 196.000000"
 preserveAspectRatio="xMidYMid meet">

<g transform="translate(0.000000,196.000000) scale(0.100000,-0.100000)"
fill="#000000" stroke="none">
<path d="M805 1910 c-42 -17 -652 -373 -685 -399 -19 -16 -45 -48 -57 -72 -22
-43 -23 -52 -25 -459 -3 -413 -3 -415 19 -461 13 -25 35 -57 50 -72 24 -22
564 -341 673 -397 53 -27 118 -33 170 -17 44 14 677 373 714 405 10 10 30 35
45 57 l26 40 3 424 3 424 -26 53 c-14 28 -40 63 -58 76 -39 31 -613 363 -671
389 -43 19 -144 25 -181 9z m455 -263 c173 -99 328 -192 344 -206 55 -50 56
-57 56 -473 0 -379 -1 -383 -23 -423 -20 -36 -55 -59 -312 -208 -361 -209
-404 -231 -453 -224 -24 3 -154 72 -362 192 -179 103 -333 195 -344 204 -44
38 -46 60 -46 467 0 422 1 433 59 473 65 46 649 375 676 381 16 4 44 5 60 2
17 -2 172 -86 345 -185z"/>
<path d="M810 1394 c-187 -50 -313 -231 -297 -426 3 -36 16 -89 28 -118 l22
-51 -52 -107 c-80 -167 -73 -175 86 -101 108 49 117 52 146 40 125 -51 233
-50 346 4 185 89 273 293 213 492 -62 201 -285 322 -492 267z m263 -82 c76
-38 129 -92 166 -171 22 -47 26 -70 26 -141 0 -76 -4 -93 -33 -152 -38 -77
-92 -130 -171 -167 -48 -22 -69 -26 -146 -25 -74 0 -100 5 -146 26 l-56 25
-76 -35 c-43 -19 -80 -33 -83 -30 -3 3 12 40 32 81 l38 75 -29 63 c-51 114
-35 253 39 351 102 133 286 175 439 100z"/>
<path d="M730 1075 c-15 -18 -7 -43 16 -52 24 -9 46 24 33 48 -12 23 -32 24
-49 4z"/>
<path d="M1057 1084 c-13 -13 -7 -55 9 -61 24 -9 51 23 38 45 -12 19 -36 27
-47 16z"/>
<path d="M797 933 c-12 -11 -8 -42 8 -74 19 -36 70 -69 108 -69 63 0 127 58
127 116 l0 34 -118 0 c-65 0 -122 -3 -125 -7z m203 -39 c0 -34 -63 -70 -105
-60 -28 7 -67 45 -59 58 6 9 164 12 164 2z"/>
</g>
</svg>
