<svg version="1.0" xmlns="http://www.w3.org/2000/svg"
 width="116.000000pt" height="116.000000pt" viewBox="0 0 116.000000 116.000000"
 preserveAspectRatio="xMidYMid meet">

<g transform="translate(0.000000,116.000000) scale(0.100000,-0.100000)"
fill="#5C5589" stroke="none">
<path d="M100 1109 c-57 -23 -60 -36 -60 -261 l0 -208 27 -30 c20 -22 40 -33
70 -37 l42 -6 3 -96 c3 -84 5 -96 22 -99 24 -5 169 141 164 165 -6 33 -39 26
-84 -18 -49 -48 -52 -46 -56 46 l-3 60 -50 5 c-27 3 -56 9 -62 13 -18 11 -18
388 -1 405 17 17 519 17 536 0 7 -7 12 -44 12 -94 0 -60 4 -85 15 -94 12 -10
18 -10 30 0 11 9 15 34 15 101 0 84 -2 90 -29 121 l-29 33 -269 2 c-161 1
-278 -2 -293 -8z"/>
<path d="M484 739 l-29 -30 0 -210 0 -211 33 -29 c32 -28 35 -29 145 -29 l112
0 105 -105 c58 -58 110 -105 117 -105 23 0 33 38 33 124 l0 86 36 0 c26 0 43
8 65 29 l29 29 0 212 0 212 -29 29 -29 29 -279 0 -279 0 -30 -31z m584 -41
c18 -18 17 -382 -1 -396 -7 -6 -37 -12 -67 -14 l-55 -3 -3 -65 c-1 -36 -5 -71
-8 -79 -3 -10 -30 11 -87 67 l-82 82 -116 0 c-76 0 -119 4 -127 12 -17 17 -17
379 0 396 17 17 529 17 546 0z"/>
</g>
</svg>
