<?xml version="1.0" standalone="no"?>
<!DOCTYPE svg PUBLIC "-//W3C//DTD SVG 20010904//EN"
 "http://www.w3.org/TR/2001/REC-SVG-20010904/DTD/svg10.dtd">
<svg version="1.0" xmlns="http://www.w3.org/2000/svg"
 width="270.000000pt" height="297.000000pt" viewBox="0 0 270.000000 297.000000"
 preserveAspectRatio="xMidYMid meet">

<g transform="translate(0.000000,297.000000) scale(0.100000,-0.100000)"
fill="#5C5589" stroke="none">
<path d="M1322 2904 l-22 -15 0 -393 c0 -368 1 -394 18 -409 24 -22 55 -21 75
1 15 17 17 59 17 405 0 374 -1 388 -20 407 -24 24 -38 25 -68 4z"/>
<path d="M552 2468 c-28 -28 -10 -64 107 -223 96 -130 123 -161 145 -163 15
-2 34 2 42 9 32 26 15 62 -104 224 -102 138 -122 160 -148 163 -16 2 -35 -3
-42 -10z"/>
<path d="M2050 2428 c-141 -185 -200 -273 -200 -297 0 -34 17 -51 51 -51 24 0
43 22 148 166 67 92 121 176 121 188 0 30 -18 46 -52 46 -22 0 -37 -11 -68
-52z"/>
<path d="M91 1824 c-24 -17 -29 -65 -8 -82 23 -19 386 -130 407 -125 12 3 26
17 31 31 18 48 -6 64 -172 116 -256 81 -234 76 -258 60z"/>
<path d="M2400 1778 c-102 -33 -193 -68 -204 -78 -13 -13 -17 -26 -12 -44 13
-52 38 -50 246 18 105 35 196 69 201 77 21 33 7 68 -31 81 -8 3 -98 -22 -200
-54z"/>
<path d="M275 1087 c-99 -34 -186 -66 -193 -70 -15 -10 -16 -59 0 -75 20 -20
51 -14 243 48 179 59 205 73 205 109 0 18 -39 51 -57 50 -10 0 -99 -28 -198
-62z"/>
<path d="M2200 1130 c-52 -52 -17 -78 192 -144 183 -58 216 -64 236 -44 16 16
15 63 0 76 -13 10 -380 132 -398 132 -6 0 -19 -9 -30 -20z"/>
<path d="M767 663 c-51 -58 -227 -311 -227 -329 0 -34 23 -56 55 -52 24 2 47
28 146 163 116 158 134 196 107 223 -18 18 -63 15 -81 -5z"/>
<path d="M1862 668 c-28 -28 -11 -64 106 -223 94 -128 123 -161 143 -163 31
-4 59 21 58 51 0 12 -53 94 -118 182 -101 137 -122 160 -147 163 -16 2 -35 -3
-42 -10z"/>
<path d="M1320 490 c-19 -19 -20 -33 -20 -223 0 -185 2 -205 18 -220 26 -23
58 -21 76 5 13 19 16 57 16 220 0 185 -1 199 -20 218 -11 11 -27 20 -35 20 -8
0 -24 -9 -35 -20z"/>
</g>
</svg>
