<svg version="1.0" xmlns="http://www.w3.org/2000/svg"
 width="107.000000pt" height="112.000000pt" viewBox="0 0 107.000000 112.000000"
 preserveAspectRatio="xMidYMid meet">

<g transform="translate(0.000000,112.000000) scale(0.100000,-0.100000)"
fill="#5C5589" stroke="none">
<path d="M301 1076 c-5 -6 -11 -45 -13 -86 l-3 -75 -95 -3 c-60 -2 -97 -7
-102 -15 -13 -20 -10 -261 4 -275 8 -8 46 -12 105 -12 l93 0 0 -90 0 -90 -94
0 c-68 0 -97 -4 -105 -14 -8 -9 -11 -57 -9 -147 l3 -134 103 -3 102 -3 0 -64
c0 -63 1 -65 25 -65 29 0 38 24 33 86 l-3 39 215 0 215 0 0 -60 c0 -58 1 -60
28 -63 l27 -3 0 65 0 66 93 0 c59 0 97 4 105 12 17 17 17 259 0 276 -8 8 -46
12 -105 12 l-93 0 0 90 0 90 94 0 c68 0 97 4 105 14 8 9 11 57 9 147 l-3 134
-100 5 -100 5 -3 77 c-3 84 -18 112 -48 87 -13 -11 -15 -27 -12 -86 4 -56 2
-73 -9 -78 -8 -3 -104 -5 -213 -5 -150 0 -199 3 -203 13 -3 6 -2 33 0 59 3 25
3 57 -1 71 -7 29 -30 41 -45 23z m-13 -313 l3 -93 -76 0 -75 0 0 88 c0 49 3
92 7 96 4 4 37 6 73 4 l65 -3 3 -92z m474 92 c10 -4 13 -28 12 -93 l-2 -87
-210 -3 -211 -2 -3 87 c-2 49 -2 91 0 96 4 8 392 10 414 2z m216 -92 l3 -93
-76 0 -75 0 0 88 c0 49 3 92 7 96 4 4 37 6 73 4 l65 -3 3 -92z m-205 -243 l0
-85 -212 -3 -211 -2 0 90 0 90 211 -2 212 -3 0 -85z m-483 -240 l0 -90 -75 0
-75 0 0 90 0 90 75 0 75 0 0 -90z m483 0 l0 -85 -208 -3 c-119 -1 -211 2 -214
7 -3 5 -5 45 -3 90 l4 81 211 -2 211 -3 -1 -85z m207 0 l0 -90 -75 0 -75 0 0
90 0 90 75 0 75 0 0 -90z"/>
</g>
</svg>
